# xmcd
#
# Track frame offsets:
#	150
#	13891
#	32725
#	51876
#	68390
#	89634
#	112407
#	127719
#	143715
#	155660
#
# Disc length: 2385 seconds
#
# Revision: 1
# Processed by: cddbd v1.5.1PL0 Copyright (c) Steve Scherf et al.
# Submitted via: EasyCDDAExtractor 6.0.0.1
#
DISCID=87094f0a
DTITLE=Sandy Banks - Music From The Heart
DYEAR=2004
DGENRE=Christian
TTITLE0=Stand Up-Sit Down
TTITLE1=In The Midst
TTITLE2=Jesus Ain't Jivin'
TTITLE3=Lord I Need Your Sweet Holy Ghost Spirit
TTITLE4=His Wonderful Love
TTITLE5=The Miracle Child
TTITLE6=I'll Do What You Say
TTITLE7=You Saved My Life
TTITLE8=Little Bright Eyes
TTITLE9=I've Cried A River Of Tears
EXTD=
EXTT0=
EXTT1=
EXTT2=
EXTT3=
EXTT4=
EXTT5=
EXTT6=
EXTT7=
EXTT8=
EXTT9=
PLAYORDER=
